<svg id="Layer_1" data-name="Layer 1" xmlns="http://www.w3.org/2000/svg" viewBox="0 0 982.09 163.62">
    <defs>
        <style>
            .cls-1{fill:none;stroke:#000;stroke-linecap:round;stroke-miterlimit:10;stroke-width:13px;}
        </style>
    </defs>
    <title>zeroneko-logo</title>
    <path d="M72.54,62.55H29.22c-7.12,0-12.88-3.64-12.88-10.46S22.1,41.64,29.22,41.64H94.65c6.37,0,11.52,2.73,11.52,11.36a13.87,13.87,0,0,1-3.49,8.94L45.58,129.8H94.05c7.12,0,12.87,3.63,12.87,10.45s-5.75,10.45-12.87,10.45H26.64c-9.08,0-14.38-3-14.38-12.27,0-3.94,1.81-6.81,4.08-9.54Z"/>
    <path d="M123.59,56.18c0-11,5.75-14.54,14.54-14.54h58.32c7.27,0,12.57,2.12,12.57,10s-5.3,10-12.57,10h-48V85.27h42.11c6.51,0,11.66,1.81,11.66,9.54s-5.15,9.54-11.66,9.54H148.43v26.36h49.23c7.27,0,12.57,2.12,12.57,10s-5.3,10-12.57,10H138.13c-8.79,0-14.54-3.48-14.54-14.54Z"/>
    <path d="M226.74,56.18c0-11,5.76-14.54,14.54-14.54h41.35c29.54,0,37.42,16.21,37.42,30.3,0,11.81-7,23.47-18.78,26.2v.3c12.72,1.82,15,11.06,15,22.12,0,12.57,3.33,17.27,3.33,22.42,0,5.75-5.9,9.69-11.66,9.69-13.63,0-14.69-13.18-14.69-17.57,0-19.09-3.49-26.81-17.12-26.81H251.58v32c0,7.42-4.84,12.42-12.42,12.42s-12.42-5-12.42-12.42Zm24.84,33.93h24.84c9.4,0,18.79-2.42,18.79-14.69,0-11.66-7.12-14.69-18-14.69h-25.6Z"/>
    <path d="M389.27,39.07c35.75,0,55.14,23.78,55.14,55.74,0,30.75-17.88,58.47-55.14,58.47-39.08,0-55.13-25.45-55.13-58.47C334.14,62.85,353.53,39.07,389.27,39.07Zm0,94.21c22.57,0,30.3-17.57,30.3-38.47s-10-35.75-30.3-35.75S359,73.91,359,94.81,366,133.28,389.27,133.28Z"/>
    <path d="M462.13,54.22c0-10.31,5-14.55,15.6-14.55,5.15,0,9.7,2,12.43,6.52l43.47,70.13h.3V51.64c0-8,4.54-12,12-12s12,3.94,12,12v85.58c0,9.85-4.24,15.45-14.69,15.45-7.88,0-10.45-1.67-13.63-6.67L486.37,77.84h-.3V140.7c0,8-4.55,12-12,12s-12-3.94-12-12Z"/>
    <path d="M581,56.18c0-11,5.76-14.54,14.54-14.54H653.9c7.27,0,12.57,2.12,12.57,10s-5.3,10-12.57,10h-48V85.27H648c6.51,0,11.66,1.81,11.66,9.54s-5.15,9.54-11.66,9.54H605.88v26.36h49.23c7.27,0,12.57,2.12,12.57,10s-5.3,10-12.57,10H595.58c-8.78,0-14.54-3.48-14.54-14.54Z"/>
    <path d="M684.2,52.09c0-7.42,4.84-12.42,12.42-12.42S709,44.67,709,52.09V88.14l39.07-43c2.88-3,5.46-5.46,9.85-5.46,5.91,0,11.81,3.64,11.81,10,0,3.79-2,6.36-4.08,8.48L740.24,85l30.14,45.9c2.27,3.48,4.7,6.66,4.7,9.84,0,9.24-6.82,12-12.73,12-5,0-7.72-1.21-11.05-6.51l-28.63-44.23L709,115.56v24.69c0,7.42-4.85,12.42-12.42,12.42s-12.42-5-12.42-12.42Z"/>
    <path d="M838.24,39.07c35.75,0,55.14,23.78,55.14,55.74,0,30.75-17.88,58.47-55.14,58.47-39.08,0-55.13-25.45-55.13-58.47C783.11,62.85,802.5,39.07,838.24,39.07Zm0,94.21c22.57,0,30.3-17.57,30.3-38.47s-10-35.75-30.3-35.75S808,73.91,808,94.81,814.92,133.28,838.24,133.28Z"/>
    <path class="cls-1" d="M909.07,62.83C987,33.5,876.79,147.54,969.83,140"/>
    <path d="M822,26.89c-15.14,2.09-18.71,6-23.59,10.17A2.08,2.08,0,0,1,795,35c1.35-5.92,3.25-15.33,3.34-21.85a2.85,2.85,0,0,1,4.48-2.31L822.52,24.6A1.27,1.27,0,0,1,822,26.89Z"/>
    <path d="M854.54,26.89c15.13,2.09,18.71,6,23.58,10.17a2.08,2.08,0,0,0,3.37-2c-1.35-5.92-3.25-15.33-3.33-21.85a2.85,2.85,0,0,0-4.48-2.31L854,24.6A1.26,1.26,0,0,0,854.54,26.89Z"/>
</svg>