<svg width="1145" height="731" viewBox="0 0 1145 731" fill="none" xmlns="http://www.w3.org/2000/svg">
<g clip-path="url(#clip0)">
<path opacity="0.1" d="M828.48 727.74H739.48L713.79 484.88L713.41 481.37V481.36L711.23 460.72L800.26 460.09L802.99 460.07L803.18 462.05L828.48 727.74Z" fill="white"/>
<path opacity="0.1" d="M715.19 483.45L713.79 484.88L474.62 727.74H352.75L655.7 413.58L713.41 481.36L715.19 483.45Z" fill="white"/>
<path d="M1079.13 683.72C1065.43 698.319 1048.89 709.954 1030.52 717.907C1012.15 725.86 992.339 729.962 972.32 729.96H219.25C170.859 729.98 124.361 711.165 89.6 677.5L90.68 677.32C200.57 659.77 373.06 648.46 567 648.46C781.71 648.46 970.12 662.32 1076.42 683.18C1077.33 683.35 1078.23 683.53 1079.13 683.72Z" fill="#E8EAF2"/>
<path opacity="0.3" d="M1079.13 684.23C1065.43 698.829 1048.89 710.464 1030.52 718.417C1012.15 726.37 992.339 730.472 972.32 730.47H219.25C170.858 730.487 124.359 711.669 89.6 678L90.68 677.82C200.57 660.23 373.06 648.96 567 648.96C781.71 648.96 970.12 662.82 1076.42 683.68C1077.33 683.85 1078.23 684.03 1079.13 684.23Z" fill="white"/>
<path d="M703 559.53C790.813 559.53 862 488.343 862 400.53C862 312.717 790.813 241.53 703 241.53C615.187 241.53 544 312.717 544 400.53C544 488.343 615.187 559.53 703 559.53Z" fill="#F86D70"/>
<path d="M856.5 678.47L848.37 708.4C846.844 714.019 843.512 718.979 838.887 722.516C834.262 726.053 828.602 727.969 822.78 727.97H318.78C312.958 727.969 307.298 726.053 302.673 722.516C298.048 718.979 294.716 714.019 293.19 708.4L285.06 678.47C277.98 652.39 296.5 625.76 323.5 624.55C324.16 624.55 324.82 624.5 325.5 624.5H816.11C816.78 624.5 817.44 624.5 818.11 624.55C845.08 625.76 863.6 652.39 856.5 678.47Z" fill="#4F4C6A"/>
<path opacity="0.1" d="M807.68 638.12C807.68 670.45 697.96 696.66 562.62 696.66C427.28 696.66 317.56 670.45 317.56 638.12C317.56 633.42 319.87 628.86 324.23 624.5H801.01C805.36 628.86 807.68 633.42 807.68 638.12Z" fill="#AFAFAF"/>
<path d="M874.39 504.85C874.39 480.97 852.44 461.61 825.39 461.61C798.34 461.61 776.39 480.97 776.39 504.85C749.33 504.85 727.39 524.22 727.39 548.1C727.39 571.98 749.34 591.35 776.39 591.35C784.904 591.38 793.303 589.393 800.9 585.55C808.504 589.362 816.894 591.347 825.4 591.347C833.906 591.347 842.296 589.362 849.9 585.55C857.497 589.393 865.896 591.38 874.41 591.35C901.48 591.35 923.41 571.98 923.41 548.1C923.41 524.22 901.5 504.85 874.39 504.85Z" fill="white"/>
<path opacity="0.1" d="M874.39 504.85C874.39 480.97 852.44 461.61 825.39 461.61C798.34 461.61 776.39 480.97 776.39 504.85C749.33 504.85 727.39 524.22 727.39 548.1C727.39 571.98 749.34 591.35 776.39 591.35C784.904 591.38 793.303 589.393 800.9 585.55C808.504 589.362 816.894 591.347 825.4 591.347C833.906 591.347 842.296 589.362 849.9 585.55C857.497 589.393 865.896 591.38 874.41 591.35C901.48 591.35 923.41 571.98 923.41 548.1C923.41 524.22 901.5 504.85 874.39 504.85Z" fill="black"/>
<path d="M758.57 285.98C758.576 279.981 757.478 274.032 755.33 268.43C766.247 264.562 775.445 256.96 781.3 246.967C787.155 236.974 789.29 225.234 787.328 213.82C785.366 202.405 779.433 192.052 770.577 184.588C761.721 177.124 750.512 173.03 738.93 173.03C738.926 161.004 734.509 149.397 726.517 140.41C718.525 131.423 707.513 125.681 695.57 124.273C683.626 122.865 671.581 125.889 661.718 132.771C651.855 139.653 644.86 149.914 642.06 161.61C641.61 161.61 641.16 161.61 640.71 161.61C640.721 149.375 636.163 137.577 627.93 128.526C619.697 119.476 608.381 113.825 596.2 112.681C584.018 111.538 571.849 114.983 562.075 122.343C552.301 129.703 545.627 140.447 543.36 152.47C536.116 146.777 527.417 143.237 518.256 142.254C509.095 141.272 499.843 142.887 491.557 146.914C483.27 150.941 476.284 157.219 471.397 165.029C466.51 172.839 463.919 181.867 463.92 191.08C453.357 191.095 443.081 194.515 434.617 200.834C426.153 207.153 419.952 216.032 416.935 226.155C413.917 236.278 414.245 247.103 417.869 257.025C421.492 266.946 428.219 275.435 437.05 281.23C436.418 284.408 436.1 287.64 436.1 290.88C428.565 290.876 421.131 292.607 414.372 295.937C407.613 299.267 401.711 304.108 397.123 310.084C392.534 316.061 389.383 323.013 387.912 330.403C386.441 337.792 386.69 345.422 388.64 352.7C390.59 359.978 394.188 366.709 399.157 372.374C404.125 378.038 410.331 382.484 417.292 385.366C424.254 388.248 431.786 389.489 439.304 388.994C446.823 388.499 454.126 386.28 460.65 382.51C468.116 386.82 476.584 389.09 485.205 389.09C493.826 389.09 502.294 386.82 509.76 382.51C518.859 387.765 529.404 389.962 539.844 388.777C550.285 387.593 560.069 383.09 567.76 375.93C568.61 375.93 569.46 376 570.32 376C578.944 376.007 587.418 373.734 594.88 369.41C605.847 375.768 618.856 377.615 631.16 374.56C638.854 380.239 648.039 383.548 657.587 384.081C667.136 384.614 676.632 382.348 684.91 377.56C692.376 381.87 700.844 384.139 709.465 384.139C718.086 384.139 726.554 381.87 734.02 377.56C740.544 381.33 747.847 383.549 755.366 384.044C762.884 384.539 770.416 383.298 777.378 380.416C784.339 377.534 790.545 373.088 795.513 367.424C800.482 361.759 804.08 355.028 806.03 347.75C807.98 340.472 808.229 332.842 806.758 325.453C805.287 318.063 802.136 311.111 797.547 305.134C792.959 299.158 787.057 294.317 780.298 290.987C773.539 287.657 766.105 285.926 758.57 285.93V285.98ZM534.31 290.89C534.307 288.776 534.167 286.665 533.89 284.57C535.15 283.98 536.39 283.36 537.59 282.66C539.551 283.808 541.593 284.81 543.7 285.66C541.278 287.231 538.997 289.007 536.88 290.97C536.03 290.91 535.17 290.89 534.31 290.89V290.89Z" fill="white"/>
<path d="M736.2 421.3C736.025 409.681 731.287 398.596 723.008 390.441C714.73 382.286 703.576 377.715 691.955 377.715C680.334 377.715 669.18 382.286 660.902 390.441C652.623 398.596 647.885 409.681 647.71 421.3C640.921 421.296 634.221 422.855 628.131 425.855C622.04 428.855 616.722 433.217 612.587 438.602C608.452 443.987 605.612 450.252 604.286 456.91C602.961 463.569 603.185 470.444 604.942 477.002C606.7 483.56 609.942 489.626 614.419 494.73C618.896 499.834 624.488 503.839 630.761 506.436C637.035 509.033 643.821 510.151 650.596 509.704C657.371 509.257 663.952 507.258 669.83 503.86C676.555 507.751 684.186 509.799 691.955 509.799C699.724 509.799 707.355 507.751 714.08 503.86C719.957 507.251 726.535 509.244 733.305 509.686C740.075 510.128 746.857 509.007 753.125 506.41C759.392 503.812 764.979 499.808 769.452 494.706C773.925 489.605 777.165 483.543 778.921 476.989C780.676 470.436 780.901 463.566 779.578 456.912C778.255 450.257 775.419 443.996 771.289 438.613C767.16 433.23 761.847 428.868 755.763 425.866C749.678 422.864 742.985 421.302 736.2 421.3V421.3Z" fill="white"/>
<path opacity="0.1" d="M736.2 421.3C736.025 409.681 731.287 398.596 723.008 390.441C714.73 382.286 703.576 377.715 691.955 377.715C680.334 377.715 669.18 382.286 660.902 390.441C652.623 398.596 647.885 409.681 647.71 421.3C640.921 421.296 634.221 422.855 628.131 425.855C622.04 428.855 616.722 433.217 612.587 438.602C608.452 443.987 605.612 450.252 604.286 456.91C602.961 463.569 603.185 470.444 604.942 477.002C606.7 483.56 609.942 489.626 614.419 494.73C618.896 499.834 624.488 503.839 630.761 506.436C637.035 509.033 643.821 510.151 650.596 509.704C657.371 509.257 663.952 507.258 669.83 503.86C676.555 507.751 684.186 509.799 691.955 509.799C699.724 509.799 707.355 507.751 714.08 503.86C719.957 507.251 726.535 509.244 733.305 509.686C740.075 510.128 746.857 509.007 753.125 506.41C759.392 503.812 764.979 499.808 769.452 494.706C773.925 489.605 777.165 483.543 778.921 476.989C780.676 470.436 780.901 463.566 779.578 456.912C778.255 450.257 775.419 443.996 771.289 438.613C767.16 433.23 761.847 428.868 755.763 425.866C749.678 422.864 742.985 421.302 736.2 421.3V421.3Z" fill="black"/>
<path opacity="0.1" d="M758.57 285.98C758.576 279.981 757.478 274.032 755.33 268.43C766.247 264.562 775.445 256.96 781.3 246.967C787.155 236.974 789.29 225.234 787.328 213.82C785.366 202.405 779.433 192.052 770.577 184.588C761.721 177.124 750.512 173.03 738.93 173.03C738.926 161.004 734.509 149.397 726.517 140.41C718.525 131.423 707.513 125.681 695.57 124.273C683.626 122.865 671.581 125.889 661.718 132.771C651.855 139.653 644.86 149.914 642.06 161.61C641.61 161.61 641.16 161.61 640.71 161.61C640.721 149.375 636.163 137.577 627.93 128.526C619.697 119.476 608.381 113.825 596.2 112.681C584.018 111.538 571.849 114.983 562.075 122.343C552.301 129.703 545.627 140.447 543.36 152.47C536.116 146.777 527.417 143.237 518.256 142.254C509.095 141.272 499.843 142.887 491.557 146.914C483.27 150.941 476.284 157.219 471.397 165.029C466.51 172.839 463.919 181.867 463.92 191.08C453.357 191.095 443.081 194.515 434.617 200.834C426.153 207.153 419.952 216.032 416.935 226.155C413.917 236.278 414.245 247.103 417.869 257.025C421.492 266.946 428.219 275.435 437.05 281.23C436.418 284.408 436.1 287.64 436.1 290.88C428.565 290.876 421.131 292.607 414.372 295.937C407.613 299.267 401.711 304.108 397.123 310.084C392.534 316.061 389.383 323.013 387.912 330.403C386.441 337.792 386.69 345.422 388.64 352.7C390.59 359.978 394.188 366.709 399.157 372.374C404.125 378.038 410.331 382.484 417.292 385.366C424.254 388.248 431.786 389.489 439.304 388.994C446.823 388.499 454.126 386.28 460.65 382.51C468.116 386.82 476.584 389.09 485.205 389.09C493.826 389.09 502.294 386.82 509.76 382.51C518.859 387.765 529.404 389.962 539.844 388.777C550.285 387.593 560.069 383.09 567.76 375.93C568.61 375.93 569.46 376 570.32 376C578.944 376.007 587.418 373.734 594.88 369.41C605.847 375.768 618.856 377.615 631.16 374.56C638.854 380.239 648.039 383.548 657.587 384.081C667.136 384.614 676.632 382.348 684.91 377.56C692.376 381.87 700.844 384.139 709.465 384.139C718.086 384.139 726.554 381.87 734.02 377.56C740.544 381.33 747.847 383.549 755.366 384.044C762.884 384.539 770.416 383.298 777.378 380.416C784.339 377.534 790.545 373.088 795.513 367.424C800.482 361.759 804.08 355.028 806.03 347.75C807.98 340.472 808.229 332.842 806.758 325.453C805.287 318.063 802.136 311.111 797.547 305.134C792.959 299.158 787.057 294.317 780.298 290.987C773.539 287.657 766.105 285.926 758.57 285.93V285.98ZM534.31 290.89C534.307 288.776 534.167 286.665 533.89 284.57C535.15 283.98 536.39 283.36 537.59 282.66C539.551 283.808 541.593 284.81 543.7 285.66C541.278 287.231 538.997 289.007 536.88 290.97C536.03 290.91 535.17 290.89 534.31 290.89V290.89Z" fill="black"/>
<path d="M721.29 527.43C717.47 525.91 713.6 524.37 709.52 523.85C709.11 523.85 708.7 523.77 708.28 523.74C708.28 523.32 708.28 522.91 708.33 522.5C708.55 517.5 710.1 512.34 713.6 508.73C717.1 505.12 721.97 503.34 724.25 499.08C715.914 496.638 707.285 495.343 698.6 495.23C696.39 495.23 694.04 495.23 692.19 496.49C689.92 497.96 688.94 500.74 688.19 503.36C685.89 512.04 684.34 520.54 681.71 529.01L681.02 529.17C671.72 531.17 660.02 529.62 655.75 521.25C656.816 517.029 658.153 512.88 659.75 508.83C664.75 496.38 672.41 485.19 679.98 474.1C684.88 466.907 689.787 459.72 694.7 452.54C687.345 450.322 679.874 448.51 672.32 447.11C670.72 446.81 668.91 446.57 667.58 447.51C666.677 448.28 666.014 449.294 665.67 450.43C658.45 468.15 649.6 487.54 647.09 507.02C645.684 506.257 644.239 505.569 642.76 504.96L619.5 495.04C618.269 494.627 617.157 493.919 616.26 492.98C614.14 490.35 616.26 486.17 619.36 484.77C622.46 483.37 625.97 483.77 629.36 483.47C632.75 483.17 636.49 481.94 637.75 478.8C639.21 475.19 636.42 471.11 633.01 469.22C629.6 467.33 625.59 466.8 622.01 465.22C619.257 463.933 616.842 462.022 614.957 459.638C613.072 457.255 611.769 454.465 611.15 451.49L605.6 451.23C612.92 444.23 620.51 437.52 629.23 432.37C633.44 429.88 637.9 427.77 641.82 424.84C646.982 420.882 651.025 415.648 653.55 409.653C656.075 403.658 656.995 397.109 656.22 390.65C655.72 386.89 654.65 383 655.84 379.4C656.84 376.47 659.1 374.22 661.33 372.09L681.42 352.87C668.633 349.958 655.53 348.668 642.42 349.03C639.1 349.13 635.67 349.35 632.7 350.85C627.28 353.59 624.7 359.79 622.58 365.48C620.965 369.488 619.658 373.613 618.67 377.82C617.19 384.92 617.41 392.7 613.4 398.73C610.22 403.51 604.93 406.33 600.18 409.55C586.644 418.77 576.541 432.213 571.45 447.78C571.13 448.78 570.59 450.06 569.97 451.49C558.2 452.49 546.67 454.73 535.78 459.31C522.09 465.07 510.14 474.22 498.41 483.31C485.49 493.31 471.9 504.5 467.36 520.22C462.31 537.67 470.1 556.81 482.57 570.02C492.77 580.81 505.71 588.41 518.76 595.24C527.29 599.7 528.71 598.79 536.2 592.79L556.34 576.65C562.09 572.05 567.94 567.33 571.85 561.09C577.24 552.5 578.57 541.59 585.1 533.82C594.04 523.17 612.27 522.28 622.22 531.99C625.08 534.79 627.57 538.45 631.47 539.38C633.37 539.84 635.47 539.58 637.21 540.38C640.53 541.96 641.03 546.38 642.21 549.82C645.46 559.09 656.5 563.94 666.21 562.55C675.92 561.16 684.29 554.85 690.86 547.55C692.65 545.55 694.42 543.43 696.86 542.24C698.812 541.372 700.924 540.922 703.06 540.92C710.151 540.63 717.196 542.191 723.5 545.45C729.37 548.45 734.5 552.9 740.67 555.24C752.88 559.86 766.53 555.47 778.49 550.24L721.29 527.43Z" fill="#3F3D56"/>
<path opacity="0.1" d="M721.29 527.43C717.47 525.91 713.6 524.37 709.52 523.85C709.11 523.85 708.7 523.77 708.28 523.74C708.28 523.32 708.28 522.91 708.33 522.5C708.55 517.5 710.1 512.34 713.6 508.73C717.1 505.12 721.97 503.34 724.25 499.08C715.914 496.638 707.285 495.343 698.6 495.23C696.39 495.23 694.04 495.23 692.19 496.49C689.92 497.96 688.94 500.74 688.19 503.36C685.89 512.04 684.34 520.54 681.71 529.01L681.02 529.17C671.72 531.17 660.02 529.62 655.75 521.25C656.816 517.029 658.153 512.88 659.75 508.83C664.75 496.38 672.41 485.19 679.98 474.1C684.88 466.907 689.787 459.72 694.7 452.54C687.345 450.322 679.874 448.51 672.32 447.11C670.72 446.81 668.91 446.57 667.58 447.51C666.677 448.28 666.014 449.294 665.67 450.43C658.45 468.15 649.6 487.54 647.09 507.02C645.684 506.257 644.239 505.569 642.76 504.96L619.5 495.04C618.269 494.627 617.157 493.919 616.26 492.98C614.14 490.35 616.26 486.17 619.36 484.77C622.46 483.37 625.97 483.77 629.36 483.47C632.75 483.17 636.49 481.94 637.75 478.8C639.21 475.19 636.42 471.11 633.01 469.22C629.6 467.33 625.59 466.8 622.01 465.22C619.257 463.933 616.842 462.022 614.957 459.638C613.072 457.255 611.769 454.465 611.15 451.49L605.6 451.23C612.92 444.23 620.51 437.52 629.23 432.37C633.44 429.88 637.9 427.77 641.82 424.84C646.982 420.882 651.025 415.648 653.55 409.653C656.075 403.658 656.995 397.109 656.22 390.65C655.72 386.89 654.65 383 655.84 379.4C656.84 376.47 659.1 374.22 661.33 372.09L681.42 352.87C668.633 349.958 655.53 348.668 642.42 349.03C639.1 349.13 635.67 349.35 632.7 350.85C627.28 353.59 624.7 359.79 622.58 365.48C620.965 369.488 619.658 373.613 618.67 377.82C617.19 384.92 617.41 392.7 613.4 398.73C610.22 403.51 604.93 406.33 600.18 409.55C586.644 418.77 576.541 432.213 571.45 447.78C571.13 448.78 570.59 450.06 569.97 451.49C558.2 452.49 546.67 454.73 535.78 459.31C522.09 465.07 510.14 474.22 498.41 483.31C485.49 493.31 471.9 504.5 467.36 520.22C462.31 537.67 470.1 556.81 482.57 570.02C492.77 580.81 505.71 588.41 518.76 595.24C527.29 599.7 528.71 598.79 536.2 592.79L556.34 576.65C562.09 572.05 567.94 567.33 571.85 561.09C577.24 552.5 578.57 541.59 585.1 533.82C594.04 523.17 612.27 522.28 622.22 531.99C625.08 534.79 627.57 538.45 631.47 539.38C633.37 539.84 635.47 539.58 637.21 540.38C640.53 541.96 641.03 546.38 642.21 549.82C645.46 559.09 656.5 563.94 666.21 562.55C675.92 561.16 684.29 554.85 690.86 547.55C692.65 545.55 694.42 543.43 696.86 542.24C698.812 541.372 700.924 540.922 703.06 540.92C710.151 540.63 717.196 542.191 723.5 545.45C729.37 548.45 734.5 552.9 740.67 555.24C752.88 559.86 766.53 555.47 778.49 550.24L721.29 527.43Z" fill="black"/>
<path d="M557.85 404.84C557.85 380.25 531.95 360.33 499.99 360.33C468.03 360.33 442.13 380.23 442.13 404.84C410.13 404.84 384.27 424.76 384.27 449.35C384.27 473.94 410.17 493.85 442.13 493.85C452.087 493.893 461.942 491.849 471.06 487.85C480.196 491.789 490.041 493.82 499.99 493.82C509.939 493.82 519.784 491.789 528.92 487.85C538.038 491.849 547.893 493.893 557.85 493.85C589.85 493.85 615.71 473.93 615.71 449.35C615.71 424.77 589.81 404.84 557.85 404.84Z" fill="white"/>
<path opacity="0.1" d="M557.85 404.84C557.85 380.25 531.95 360.33 499.99 360.33C468.03 360.33 442.13 380.23 442.13 404.84C410.13 404.84 384.27 424.76 384.27 449.35C384.27 473.94 410.17 493.85 442.13 493.85C452.087 493.893 461.942 491.849 471.06 487.85C480.196 491.789 490.041 493.82 499.99 493.82C509.939 493.82 519.784 491.789 528.92 487.85C538.038 491.849 547.893 493.893 557.85 493.85C589.85 493.85 615.71 473.93 615.71 449.35C615.71 424.77 589.81 404.84 557.85 404.84Z" fill="black"/>
<path d="M681.94 656.23L648.77 640.96C646.11 639.73 643.16 638.2 642.33 635.38C642.035 633.854 642.035 632.286 642.33 630.76C643.128 622.824 641.403 614.839 637.4 607.94C634.91 603.67 631.54 599.83 630.05 595.11C626.87 585.11 633.05 574.52 633.35 563.98C633.68 553.72 628.35 543.85 620.76 536.9C618.51 534.83 616.04 532.9 614.27 530.45C609.13 523.23 611.27 513.45 613.71 504.82L614.34 504.24C614.81 503.78 614.46 501.81 613.6 498.89C623.188 496.333 632.227 492.043 640.27 486.23C642.82 484.38 645.27 482.35 648.27 481.17C652.39 479.52 657.06 479.71 661.22 478.17C668.98 475.28 673.29 467.17 676.9 459.73C685.45 442.14 694.15 423.96 695.23 404.43C688.21 398.999 679.677 395.883 670.81 395.51C669.33 395.45 667.65 395.51 666.68 396.67C666.135 397.406 665.79 398.271 665.68 399.18C662.651 413.118 657.422 426.486 650.19 438.78C647.299 443.945 643.753 448.714 639.64 452.97C634.64 457.97 628.5 461.7 622.46 465.41C617.38 468.52 610.58 471.55 604.81 475.12C600.81 464.84 597.16 455.46 597.63 454.02C602.652 438.336 602.847 421.506 598.19 405.71C597.03 401.79 595.55 397.92 595.19 393.84C594.83 389.76 595.64 385.74 595.96 381.68C596.59 373.63 595.36 365.56 595.41 357.48C595.47 346.54 597.87 335.76 600.26 325.08C593.613 323.892 586.846 323.529 580.11 324C578.782 324.005 577.477 324.349 576.32 325C574.64 326.09 574.01 328.19 573.44 330.11C568.99 345.02 560.92 358.63 556.13 373.44C551.34 388.25 550.31 405.6 559.22 418.36C562.39 422.89 566.82 426.99 567.52 432.47C567.89 435.37 567.13 438.28 566.37 441.11C565.02 446.18 586.74 500.66 587.95 505.69C587.95 505.83 588.03 505.95 588.06 506.08C587.38 506.23 586.69 506.36 586 506.52C585.083 520.687 579.603 534.177 570.38 544.97C569.155 541.487 568.287 537.889 567.79 534.23C567.04 528.73 567.11 523.06 565.4 517.78C562.84 509.9 556.66 503.86 551.26 497.59C541.537 486.274 533.859 473.351 528.57 459.4C524.494 460.913 520.317 462.14 516.07 463.07C513.82 463.57 506.07 463.58 504.85 465.59C502.97 468.59 511.37 482.54 513.03 485.75C518.88 497.04 528.74 505.86 534.53 517.18C536.945 522.204 538.941 527.418 540.5 532.77C543.66 542.77 546.82 552.77 549.24 562.93C546.34 565.93 544.05 569.59 541.56 573C532.73 585.014 521.044 594.637 507.56 601C505.95 601.76 504.17 602.61 503.48 604.25C503.363 604.53 503.276 604.822 503.22 605.12C497.72 601.24 492.58 596.91 489 591.27C487.42 588.77 486.17 586.06 484.45 583.66C478.66 575.59 468.53 572.18 460.24 566.66C456.74 564.34 453.48 561.59 449.61 559.96C445.36 558.16 440.66 557.82 436.06 557.51C432.29 557.25 417.83 554.24 415.97 557.61C413.33 562.38 421.7 569.35 425.05 571.03C430.62 573.82 436.99 574.53 442.81 576.74C448.071 578.902 452.955 581.886 457.28 585.58C459.17 586.974 460.825 588.662 462.18 590.58C463.62 592.83 464.29 595.48 465.5 597.86C469.38 605.49 477.77 608.98 485.28 613.47C483.287 613.557 481.326 614 479.49 614.78C473.9 617.32 471.3 623.61 467.66 628.56C464.41 632.95 460.13 636.46 456.55 640.56C452.97 644.66 449.99 649.79 450.26 655.24C450.43 658.69 451.82 662.46 449.99 665.39C454.2 667.21 459.38 669.39 463.94 669.94C468.5 670.49 473.44 669.62 476.85 666.55C477.906 665.423 479.039 664.371 480.24 663.4C483.13 661.47 487.09 662.01 490.18 663.59C493.27 665.17 495.82 667.64 498.65 669.67C502.691 672.531 507.296 674.497 512.157 675.437C517.018 676.377 522.024 676.269 526.84 675.12C528.84 674.64 531.71 674.23 531.09 672.31C526.858 670.334 523.254 667.226 520.679 663.329C518.104 659.432 516.658 654.898 516.5 650.23C519.649 649.629 522.902 649.896 525.911 651.002C528.919 652.108 531.57 654.012 533.58 656.51C530.8 656.63 528.96 660.37 530.58 662.65C535.876 662.545 541.07 661.171 545.726 658.645C550.382 656.118 554.365 652.513 557.34 648.13C559.523 647.235 561.897 646.907 564.241 647.175C566.585 647.443 568.823 648.3 570.747 649.665C572.672 651.029 574.22 652.858 575.249 654.982C576.277 657.105 576.752 659.454 576.63 661.81L591.09 668.95C593.36 670.07 595.77 671.22 598.3 671.05C600.83 670.88 603.41 668.84 603.22 666.32C603 663.43 599.53 660.48 601.43 658.32C604.83 659.84 607.43 662.84 610.92 664.15C614.41 665.46 619.55 663.71 619.36 659.99C619.206 658.751 618.726 657.574 617.97 656.58C614.06 650.623 608.862 645.62 602.76 641.94C602.31 638.67 609.76 635.08 612.02 637.52L630.34 657.71C631.765 659.447 633.452 660.952 635.34 662.17C641.89 665.96 650.07 662.17 657.63 662.17C665.81 662.17 674.18 666.83 681.79 663.86C683.79 663.09 685.79 661.2 685.22 659.14C684.77 657.66 683.28 656.89 681.94 656.23Z" fill="#4F4C6A"/>
<path d="M731.44 280.05C731.444 275.062 730.528 270.116 728.74 265.46C737.817 262.24 745.465 255.917 750.333 247.606C755.201 239.295 756.976 229.532 755.344 220.04C753.712 210.547 748.779 201.937 741.416 195.729C734.052 189.52 724.731 186.114 715.1 186.11C715.09 176.111 711.413 166.464 704.766 158.995C698.119 151.525 688.963 146.753 679.034 145.583C669.104 144.412 659.089 146.923 650.887 152.642C642.685 158.36 636.865 166.888 634.53 176.61C634.16 176.61 633.79 176.61 633.41 176.61C633.455 166.408 629.68 156.559 622.828 149C615.976 141.441 606.543 136.721 596.386 135.768C586.228 134.815 576.082 137.698 567.943 143.85C559.805 150.002 554.263 158.978 552.41 169.01C546.386 164.276 539.152 161.332 531.534 160.515C523.916 159.698 516.221 161.041 509.331 164.39C502.44 167.74 496.63 172.96 492.567 179.456C488.503 185.951 486.348 193.458 486.35 201.12C477.559 201.125 469.004 203.966 461.957 209.222C454.91 214.478 449.747 221.867 447.235 230.292C444.724 238.716 444.997 247.727 448.016 255.983C451.035 264.24 456.637 271.302 463.99 276.12C463.469 278.755 463.205 281.434 463.2 284.12C456.931 284.115 450.745 285.552 445.121 288.321C439.497 291.09 434.586 295.117 430.767 300.088C426.949 305.06 424.326 310.844 423.102 316.992C421.878 323.14 422.085 329.487 423.707 335.543C425.33 341.598 428.324 347.198 432.458 351.911C436.593 356.623 441.756 360.32 447.548 362.717C453.341 365.114 459.608 366.145 465.863 365.731C472.118 365.317 478.194 363.469 483.62 360.33C489.828 363.92 496.873 365.811 504.045 365.811C511.217 365.811 518.262 363.92 524.47 360.33C532.035 364.705 540.804 366.534 549.487 365.55C558.17 364.565 566.307 360.818 572.7 354.86C573.41 354.86 574.12 354.91 574.84 354.91C582.01 354.917 589.054 353.03 595.26 349.44C604.402 354.737 615.244 356.278 625.5 353.74C631.895 358.469 639.532 361.227 647.474 361.675C655.415 362.123 663.314 360.241 670.2 356.26C676.407 359.849 683.45 361.739 690.62 361.739C697.79 361.739 704.833 359.849 711.04 356.26C716.465 359.391 722.537 361.233 728.787 361.643C735.038 362.052 741.298 361.018 747.085 358.622C752.872 356.225 758.03 352.529 762.161 347.82C766.291 343.111 769.283 337.515 770.905 331.465C772.526 325.415 772.735 319.073 771.514 312.929C770.293 306.786 767.675 301.005 763.863 296.035C760.051 291.065 755.147 287.038 749.53 284.266C743.913 281.495 737.734 280.052 731.47 280.05H731.44ZM544.92 284.14C544.915 282.384 544.798 280.631 544.57 278.89C545.57 278.39 546.65 277.89 547.64 277.3C549.279 278.24 550.979 279.069 552.73 279.78C550.711 281.081 548.811 282.557 547.05 284.19C546.35 284.16 545.63 284.14 544.92 284.14V284.14Z" fill="white"/>
<path d="M870.3 506.05C870.3 483.5 849.58 465.21 824.01 465.21C798.44 465.21 777.73 483.5 777.73 506.05C752.16 506.05 731.44 524.34 731.44 546.9C731.44 569.46 752.16 587.74 777.73 587.74C785.771 587.76 793.701 585.872 800.87 582.23C808.053 585.833 815.979 587.71 824.015 587.71C832.051 587.71 839.977 585.833 847.16 582.23C854.331 585.861 862.262 587.739 870.3 587.71C895.87 587.71 916.59 569.43 916.59 546.87C916.59 524.31 895.87 506.05 870.3 506.05Z" fill="white"/>
<path d="M731.44 423.01C731.525 417.592 730.531 412.212 728.516 407.182C726.502 402.152 723.507 397.574 719.705 393.712C715.904 389.851 711.373 386.785 706.375 384.692C701.377 382.599 696.013 381.521 690.595 381.521C685.177 381.521 679.813 382.599 674.815 384.692C669.817 386.785 665.286 389.851 661.485 393.712C657.683 397.574 654.688 402.152 652.674 407.182C650.659 412.212 649.665 417.592 649.75 423.01C643.487 423.013 637.31 424.456 631.694 427.228C626.078 430 621.175 434.026 617.364 438.995C613.553 443.965 610.935 449.744 609.714 455.886C608.493 462.029 608.701 468.369 610.321 474.419C611.942 480.468 614.932 486.063 619.06 490.772C623.189 495.482 628.345 499.178 634.13 501.576C639.915 503.975 646.174 505.011 652.423 504.604C658.673 504.197 664.745 502.358 670.17 499.23C676.379 502.813 683.421 504.7 690.59 504.7C697.759 504.7 704.801 502.813 711.01 499.23C716.435 502.361 722.507 504.203 728.757 504.613C735.008 505.022 741.268 503.988 747.055 501.592C752.842 499.195 758 495.499 762.131 490.79C766.261 486.081 769.253 480.485 770.875 474.435C772.496 468.385 772.705 462.043 771.484 455.899C770.263 449.756 767.645 443.975 763.833 439.005C760.021 434.035 755.117 430.008 749.5 427.236C743.883 424.465 737.704 423.022 731.44 423.02V423.01Z" fill="white"/>
<path d="M553.09 406.67C553.09 384.11 529.31 365.83 499.99 365.83C470.67 365.83 446.89 384.11 446.89 406.67C417.57 406.67 393.8 424.96 393.8 447.51C393.8 470.06 417.57 488.36 446.89 488.36C456.026 488.409 465.07 486.542 473.44 482.88C481.825 486.495 490.859 488.36 499.99 488.36C509.121 488.36 518.155 486.495 526.54 482.88C534.91 486.542 543.954 488.409 553.09 488.36C582.41 488.36 606.18 470.07 606.18 447.51C606.18 424.95 582.41 406.67 553.09 406.67Z" fill="white"/>
<path d="M453.7 526.48C453.788 520.703 452.725 514.967 450.575 509.605C448.425 504.243 445.23 499.362 441.176 495.246C437.122 491.13 432.29 487.861 426.961 485.63C421.632 483.399 415.912 482.25 410.135 482.25C404.358 482.25 398.638 483.399 393.309 485.63C387.98 487.861 383.148 491.13 379.094 495.246C375.04 499.362 371.845 504.243 369.695 509.605C367.545 514.967 366.483 520.703 366.57 526.48C359.885 526.476 353.288 528.01 347.291 530.964C341.294 533.918 336.057 538.213 331.985 543.515C327.914 548.818 325.117 554.986 323.812 561.543C322.506 568.099 322.727 574.868 324.457 581.326C326.188 587.784 329.381 593.756 333.789 598.782C338.198 603.808 343.704 607.752 349.881 610.308C356.058 612.865 362.741 613.966 369.411 613.526C376.082 613.085 382.562 611.116 388.35 607.77C394.973 611.596 402.487 613.61 410.135 613.61C417.784 613.61 425.297 611.596 431.92 607.77C437.707 611.109 444.183 613.072 450.85 613.507C457.516 613.943 464.194 612.839 470.365 610.282C476.537 607.724 482.038 603.782 486.442 598.758C490.847 593.735 494.037 587.766 495.766 581.313C497.495 574.86 497.716 568.096 496.413 561.544C495.11 554.991 492.317 548.827 488.251 543.526C484.185 538.226 478.954 533.931 472.963 530.976C466.971 528.02 460.381 526.482 453.7 526.48V526.48Z" fill="white"/>
<path opacity="0.1" d="M453.7 526.48C453.788 520.703 452.725 514.967 450.575 509.605C448.425 504.243 445.23 499.362 441.176 495.246C437.122 491.13 432.29 487.861 426.961 485.63C421.632 483.399 415.912 482.25 410.135 482.25C404.358 482.25 398.638 483.399 393.309 485.63C387.98 487.861 383.148 491.13 379.094 495.246C375.04 499.362 371.845 504.243 369.695 509.605C367.545 514.967 366.483 520.703 366.57 526.48C359.885 526.476 353.288 528.01 347.291 530.964C341.294 533.918 336.057 538.213 331.985 543.515C327.914 548.818 325.117 554.986 323.812 561.543C322.506 568.099 322.727 574.868 324.457 581.326C326.188 587.784 329.381 593.756 333.789 598.782C338.198 603.808 343.704 607.752 349.881 610.308C356.058 612.865 362.741 613.966 369.411 613.526C376.082 613.085 382.562 611.116 388.35 607.77C394.973 611.596 402.487 613.61 410.135 613.61C417.784 613.61 425.297 611.596 431.92 607.77C437.707 611.109 444.183 613.072 450.85 613.507C457.516 613.943 464.194 612.839 470.365 610.282C476.537 607.724 482.038 603.782 486.442 598.758C490.847 593.735 494.037 587.766 495.766 581.313C497.495 574.86 497.716 568.096 496.413 561.544C495.11 554.991 492.317 548.827 488.251 543.526C484.185 538.226 478.954 533.931 472.963 530.976C466.971 528.02 460.381 526.482 453.7 526.48V526.48Z" fill="black"/>
<path d="M450.98 527.84C451.065 522.422 450.071 517.042 448.056 512.012C446.042 506.982 443.047 502.404 439.245 498.542C435.444 494.681 430.913 491.615 425.915 489.522C420.917 487.429 415.553 486.351 410.135 486.351C404.717 486.351 399.353 487.429 394.355 489.522C389.357 491.615 384.826 494.681 381.025 498.542C377.223 502.404 374.228 506.982 372.214 512.012C370.199 517.042 369.205 522.422 369.29 527.84C363.026 527.84 356.846 529.282 351.228 532.053C345.61 534.823 340.705 538.849 336.891 543.819C333.078 548.789 330.459 554.569 329.237 560.713C328.015 566.857 328.223 573.199 329.844 579.25C331.465 585.301 334.457 590.897 338.587 595.607C342.717 600.317 347.875 604.013 353.662 606.411C359.45 608.808 365.711 609.842 371.961 609.433C378.212 609.023 384.285 607.182 389.71 604.05C395.921 607.633 402.965 609.52 410.135 609.52C417.305 609.52 424.349 607.633 430.56 604.05C435.985 607.182 442.058 609.023 448.309 609.433C454.559 609.842 460.82 608.808 466.608 606.411C472.395 604.013 477.553 600.317 481.683 595.607C485.813 590.897 488.805 585.301 490.426 579.25C492.047 573.199 492.255 566.857 491.033 560.713C489.811 554.569 487.192 548.789 483.379 543.819C479.565 538.849 474.66 534.823 469.042 532.053C463.424 529.282 457.244 527.84 450.98 527.84V527.84Z" fill="white"/>
<path opacity="0.1" d="M578.95 195.64C588.472 195.639 597.673 199.08 604.858 205.328C612.043 211.576 616.728 220.21 618.05 229.64C618.83 224.261 618.492 218.78 617.056 213.538C615.619 208.296 613.116 203.407 609.703 199.178C606.29 194.948 602.041 191.469 597.221 188.958C592.401 186.446 587.114 184.958 581.692 184.584C576.27 184.211 570.829 184.961 565.71 186.787C560.591 188.614 555.905 191.478 551.944 195.2C547.983 198.921 544.834 203.421 542.693 208.416C540.551 213.411 539.464 218.795 539.5 224.23C539.505 226.053 539.632 227.874 539.88 229.68C541.194 220.249 545.872 211.611 553.051 205.356C560.23 199.1 569.428 195.65 578.95 195.64V195.64Z" fill="black"/>
<path opacity="0.1" d="M660.02 266.13C668.679 270.106 675.608 277.079 679.53 285.763C683.452 294.446 684.102 304.255 681.36 313.38C684.273 308.818 686.216 303.705 687.07 298.36C687.923 293.014 687.668 287.551 686.321 282.308C684.974 277.065 682.563 272.156 679.238 267.884C675.913 263.613 671.745 260.071 666.993 257.478C662.242 254.885 657.008 253.298 651.616 252.813C646.225 252.329 640.792 252.958 635.654 254.663C630.516 256.367 625.784 259.109 621.751 262.72C617.718 266.33 614.47 270.731 612.21 275.65C611.455 277.308 610.813 279.015 610.29 280.76C615.419 272.732 623.278 266.829 632.418 264.14C641.557 261.451 651.361 262.158 660.02 266.13V266.13Z" fill="black"/>
<path opacity="0.1" d="M544.3 296.08C552.959 300.056 559.888 307.029 563.81 315.713C567.732 324.396 568.382 334.205 565.64 343.33C566.619 341.794 567.494 340.193 568.26 338.54C572.57 329.033 572.939 318.206 569.287 308.427C565.635 298.649 558.259 290.714 548.772 286.36C539.285 282.005 528.46 281.585 518.665 285.19C508.869 288.796 500.9 296.134 496.5 305.6C495.745 307.258 495.103 308.965 494.58 310.71C499.709 302.684 507.566 296.783 516.703 294.094C525.841 291.406 535.642 292.111 544.3 296.08Z" fill="black"/>
<path opacity="0.1" d="M503.2 422.56C507.489 426.324 510.272 431.512 511.037 437.167C511.801 442.822 510.495 448.562 507.36 453.33C508.188 452.617 508.966 451.849 509.69 451.03C513.826 446.314 515.919 440.149 515.51 433.89C515.1 427.631 512.221 421.791 507.505 417.655C505.17 415.607 502.455 414.039 499.514 413.04C496.573 412.042 493.464 411.632 490.365 411.835C484.106 412.245 478.266 415.124 474.13 419.84C473.403 420.662 472.734 421.534 472.13 422.45C476.449 418.714 481.975 416.667 487.686 416.687C493.397 416.707 498.907 418.793 503.2 422.56Z" fill="black"/>
<path opacity="0.1" d="M874.87 531.48C879.159 535.239 881.943 540.423 882.71 546.075C883.476 551.726 882.173 557.464 879.04 562.23C879.865 561.517 880.64 560.748 881.36 559.93C883.407 557.596 884.975 554.881 885.973 551.941C886.971 549.001 887.381 545.893 887.178 542.795C886.975 539.697 886.164 536.669 884.79 533.884C883.417 531.099 881.509 528.612 879.175 526.565C876.841 524.518 874.126 522.95 871.186 521.952C868.246 520.954 865.138 520.544 862.04 520.747C858.942 520.95 855.914 521.761 853.129 523.135C850.344 524.508 847.857 526.416 845.81 528.75C845.083 529.568 844.414 530.437 843.81 531.35C848.13 527.617 853.655 525.574 859.364 525.598C865.074 525.622 870.581 527.711 874.87 531.48Z" fill="black"/>
<path opacity="0.1" d="M411.43 531.14C416.001 527.71 421.66 526.052 427.359 526.473C433.059 526.894 438.412 529.366 442.43 533.43C441.906 532.472 441.315 531.553 440.66 530.68C436.856 525.788 431.283 522.584 425.142 521.759C419 520.933 412.779 522.551 407.818 526.265C402.857 529.978 399.551 535.491 398.613 541.616C397.675 547.742 399.178 553.991 402.8 559.02C403.454 559.89 404.165 560.715 404.93 561.49C402.172 556.498 401.31 550.677 402.505 545.099C403.699 539.522 406.869 534.565 411.43 531.14V531.14Z" fill="black"/>
<path opacity="0.1" d="M686.44 442.64C691.012 439.212 696.67 437.556 702.369 437.977C708.068 438.398 713.421 440.868 717.44 444.93C716.915 443.973 716.324 443.054 715.67 442.18C713.833 439.63 711.507 437.472 708.827 435.832C706.147 434.191 703.167 433.101 700.061 432.625C696.955 432.149 693.785 432.297 690.737 433.06C687.689 433.823 684.823 435.186 682.307 437.069C679.792 438.952 677.677 441.318 676.085 444.027C674.494 446.737 673.459 449.737 673.041 452.851C672.622 455.965 672.828 459.132 673.647 462.166C674.466 465.199 675.881 468.039 677.81 470.52C678.464 471.396 679.179 472.225 679.95 473C677.19 468.007 676.327 462.186 677.519 456.607C678.712 451.028 681.88 446.068 686.44 442.64Z" fill="black"/>
<path d="M643.55 619.62C640.93 617.62 641.26 612.79 641.26 612.79C641.26 612.79 645.83 611.27 648.45 613.3C651.07 615.33 652.09 618.4 650.74 620.14C649.39 621.88 646.17 621.66 643.55 619.62Z" fill="white"/>
<path d="M652.55 672.62C649.93 670.62 650.26 665.79 650.26 665.79C650.26 665.79 654.83 664.27 657.45 666.3C660.07 668.33 661.09 671.4 659.74 673.14C658.39 674.88 655.17 674.66 652.55 672.62Z" fill="white"/>
<path d="M643.55 677.62C640.93 675.62 641.26 670.79 641.26 670.79C641.26 670.79 645.83 669.27 648.45 671.3C651.07 673.33 652.09 676.4 650.74 678.14C649.39 679.88 646.17 679.66 643.55 677.62Z" fill="white"/>
<path d="M705.55 638.62C702.93 636.62 703.26 631.79 703.26 631.79C703.26 631.79 707.83 630.27 710.45 632.3C713.07 634.33 714.09 637.4 712.74 639.14C711.39 640.88 708.17 640.66 705.55 638.62Z" fill="white"/>
<path d="M447.87 483.98C449.92 481.38 454.73 481.76 454.73 481.76C454.73 481.76 456.19 486.35 454.13 488.95C452.07 491.55 449 492.54 447.27 491.17C445.54 489.8 445.81 486.58 447.87 483.98Z" fill="white"/>
<path opacity="0.1" d="M478 291.47C491.807 291.47 503 280.277 503 266.47C503 252.663 491.807 241.47 478 241.47C464.193 241.47 453 252.663 453 266.47C453 280.277 464.193 291.47 478 291.47Z" fill="white"/>
<path opacity="0.3" d="M153.5 692.06C153.847 691.141 154.414 690.321 155.151 689.673C155.889 689.024 156.774 688.566 157.73 688.34C158.75 688.11 159.795 688.013 160.84 688.05C167.17 688.16 171.97 691.05 177.75 692.38C183.27 693.69 189.56 693.62 195.61 693.52C199.407 693.58 203.2 693.278 206.94 692.62C212.99 691.34 216.94 688.32 220.62 685.46" fill="white"/>
<path opacity="0.3" d="M859.5 682.06C859.847 681.141 860.414 680.321 861.151 679.673C861.889 679.024 862.774 678.566 863.73 678.34C864.75 678.11 865.795 678.013 866.84 678.05C873.17 678.16 877.97 681.05 883.75 682.38C889.27 683.69 895.56 683.62 901.61 683.52C905.407 683.58 909.2 683.278 912.94 682.62C918.94 681.34 922.94 678.32 926.62 675.46" fill="white"/>
<path opacity="0.3" d="M915.5 704.06C915.847 703.141 916.414 702.321 917.151 701.673C917.889 701.024 918.774 700.566 919.73 700.34C920.75 700.11 921.795 700.013 922.84 700.05C929.17 700.16 933.97 703.05 939.75 704.38C945.27 705.69 951.56 705.62 957.61 705.52C961.407 705.58 965.2 705.278 968.94 704.62C974.94 703.34 978.94 700.32 982.62 697.46" fill="white"/>
<path opacity="0.3" d="M868.5 699.11C868.664 698.837 868.887 698.605 869.154 698.432C869.421 698.259 869.724 698.148 870.04 698.11C870.416 698.042 870.798 698.015 871.18 698.03C873.49 698.03 875.24 698.86 877.35 699.25C879.508 699.564 881.691 699.675 883.87 699.58C885.251 699.596 886.632 699.509 888 699.32C889.788 699.01 891.491 698.328 893 697.32" fill="white"/>
<path opacity="0.3" d="M878.5 688.11C878.664 687.837 878.887 687.605 879.154 687.432C879.421 687.259 879.724 687.148 880.04 687.11C880.416 687.042 880.798 687.015 881.18 687.03C883.49 687.03 885.24 687.86 887.35 688.25C889.508 688.564 891.691 688.675 893.87 688.58C895.251 688.596 896.632 688.509 898 688.32C899.788 688.01 901.491 687.328 903 686.32" fill="white"/>
<path opacity="0.3" d="M254.5 670.23C254.677 669.954 254.913 669.721 255.192 669.548C255.47 669.375 255.784 669.266 256.11 669.23C256.5 669.17 256.895 669.147 257.29 669.16C259.69 669.16 261.52 669.92 263.71 670.28C265.961 670.564 268.232 670.664 270.5 670.58C271.937 670.593 273.373 670.513 274.8 670.34C276.637 670.061 278.403 669.429 280 668.48" fill="white"/>
<path opacity="0.3" d="M225.5 671.23C225.677 670.954 225.913 670.721 226.192 670.548C226.47 670.375 226.784 670.266 227.11 670.23C227.5 670.17 227.895 670.147 228.29 670.16C230.69 670.16 232.52 670.92 234.71 671.28C236.961 671.564 239.232 671.664 241.5 671.58C242.937 671.593 244.373 671.513 245.8 671.34C247.637 671.061 249.403 670.429 251 669.48" fill="white"/>
<path opacity="0.3" d="M212.5 712.06C212.847 711.141 213.414 710.321 214.151 709.673C214.889 709.024 215.774 708.566 216.73 708.34C217.75 708.11 218.795 708.013 219.84 708.05C226.17 708.16 230.97 711.05 236.75 712.38C242.27 713.69 248.56 713.62 254.61 713.52C258.407 713.58 262.2 713.278 265.94 712.62C271.99 711.34 275.94 708.32 279.62 705.46" fill="white"/>
<path d="M791.03 656.08C790.898 656.442 790.874 656.834 790.96 657.21C791.19 657.96 792.11 658.21 792.9 658.31C794.715 658.478 796.539 658.522 798.36 658.44L814.84 658.12C815.095 658.141 815.35 658.092 815.58 657.98C815.79 657.827 815.958 657.624 816.07 657.39C817.191 655.326 817.917 653.071 818.21 650.74C818.282 650.407 818.258 650.06 818.14 649.74C817.879 649.331 817.471 649.038 817 648.92C814.667 648.036 812.286 647.282 809.87 646.66C808.29 646.309 806.733 645.859 805.21 645.31C803.21 644.53 801.21 642.76 799.21 642.39C797.42 642.08 797.13 643.46 796.56 644.86C794.97 648.74 792.16 652.02 791.03 656.08Z" fill="#FABDBD"/>
<path d="M852.81 678.66C852.4 676.75 850.71 675.41 849.1 674.28C847.49 673.15 845.76 672.01 844.05 670.96C846.837 669.439 849.404 667.545 851.68 665.33C853.06 664.157 854.254 662.782 855.22 661.25C856.185 659.699 856.498 657.83 856.09 656.05C855.736 655.027 855.156 654.097 854.392 653.33C853.629 652.563 852.701 651.978 851.68 651.62C849.633 650.911 847.486 650.532 845.32 650.5C843.77 650.4 842.21 650.31 840.66 650.24C841.632 650.055 842.593 649.818 843.54 649.53C847.036 648.382 850.39 646.842 853.54 644.94C854.076 644.715 854.562 644.386 854.97 643.972C855.378 643.558 855.701 643.068 855.92 642.53C856.015 641.999 855.956 641.451 855.748 640.953C855.541 640.454 855.194 640.026 854.75 639.72C853.869 639.102 852.826 638.754 851.75 638.72C850.282 638.646 848.815 638.874 847.439 639.39C846.063 639.906 844.807 640.699 843.75 641.72C843.077 642.476 842.314 643.147 841.48 643.72C840.99 644.063 840.385 644.201 839.794 644.104C839.203 644.007 838.674 643.682 838.32 643.2C838.093 642.757 837.973 642.267 837.97 641.77L838.03 641.72C839.272 640.585 840.217 639.163 840.783 637.578C841.35 635.994 841.52 634.295 841.28 632.63C840.839 630.1 840.005 627.654 838.81 625.38C840.514 624.762 842.293 624.375 844.1 624.23C844.59 624.223 845.076 624.139 845.54 623.98C845.989 623.738 846.379 623.399 846.68 622.987C846.981 622.575 847.186 622.101 847.28 621.6C847.467 620.619 847.748 619.657 848.12 618.73C850.279 620.1 852.865 620.631 855.389 620.224C857.914 619.817 860.201 618.499 861.82 616.52C863.761 616.608 865.691 616.177 867.41 615.27C869.46 614.07 871.31 611.16 870.09 608.79C869.589 608.074 868.993 607.428 868.32 606.87C867.489 605.866 866.852 604.716 866.44 603.48C864.25 597.97 859.59 595.82 853.92 594.96C851.378 594.504 848.782 594.437 846.22 594.76C844.257 595.123 842.334 595.679 840.48 596.42L839.58 596.76C839.51 595.27 839.27 593.76 839.21 592.59C839.144 592.098 839.195 591.598 839.36 591.13C839.81 590.392 840.526 589.855 841.36 589.63L852.65 584.81C853.847 584.257 855.088 583.805 856.36 583.46C860.05 582.58 864.17 583.46 867.53 581.72C868.5 581.21 869.351 580.501 870.028 579.639C870.706 578.778 871.193 577.783 871.46 576.72C871.84 575.19 871.59 573.3 870.23 572.49C868.87 571.68 866.99 572.37 865.52 573.11C860.75 575.673 855.804 577.896 850.72 579.76C845.86 581.4 840.72 582.38 836.19 584.76C835.368 585.142 834.612 585.651 833.95 586.27C833.261 587.046 832.694 587.923 832.27 588.87L830.5 592.23C829.11 594.95 827.73 598.15 828.86 600.93C828.69 601.118 828.539 601.322 828.41 601.54C827.9 602.36 828.14 603.43 827.71 604.15C827.28 604.87 825.64 605.58 824.86 606.15C823.78 606.88 822.73 607.66 821.7 608.46C817.721 611.642 814.076 615.221 810.82 619.14C805.984 625.094 801.5 631.324 797.39 637.8C796.58 638.89 795.949 640.102 795.52 641.39C795.203 642.578 795.237 643.832 795.62 645C793.99 648.56 791.45 651.68 790.38 655.48L789.73 655.59C788.53 659.05 789.3 663.04 789.93 666.66C790.28 668.72 790.77 670.97 792.46 672.23C793.375 672.819 794.393 673.23 795.46 673.44C796.67 673.76 797.78 674.08 798.87 674.44H798.73C797.34 674.31 795.73 674.44 794.9 675.52C794.517 676.124 794.278 676.809 794.2 677.52L791.59 692.23C791.282 693.307 791.334 694.456 791.74 695.5C792.305 696.367 793.142 697.021 794.12 697.36C795.884 698.133 797.749 698.648 799.66 698.89C800.45 699.041 801.265 698.99 802.03 698.74C802.404 698.604 802.725 698.352 802.946 698.021C803.168 697.691 803.277 697.298 803.26 696.9C803.1 695.78 801.71 695.25 801.26 694.23C800.61 692.9 801.67 691.42 802.66 690.33C802.81 690.16 802.98 689.99 803.16 689.81C803.553 690.952 804.088 692.04 804.75 693.05C804.982 693.481 805.334 693.836 805.763 694.07C806.193 694.305 806.682 694.409 807.17 694.37C809.49 693.85 811.823 693.357 814.17 692.89L814.62 693.08C818.469 694.699 822.442 696.006 826.5 696.99C827.261 697.22 828.061 697.288 828.85 697.19C829.237 697.124 829.596 696.946 829.882 696.677C830.168 696.409 830.369 696.062 830.46 695.68C830.57 694.74 829.76 693.96 828.98 693.4C827.504 692.371 825.887 691.559 824.18 690.99L831.8 689.6C834.332 689.055 836.911 688.757 839.5 688.71C842.84 688.77 846.5 689.56 849.22 687.6C850.74 686.29 851.823 684.545 852.32 682.6C852.843 681.357 853.012 679.993 852.81 678.66ZM826.5 649.88C825.32 649.88 823.99 649.88 822.64 649.88C822.78 648.88 822.85 647.88 822.99 646.88C823.003 646.571 823.111 646.274 823.3 646.03C823.553 645.805 823.873 645.668 824.21 645.64L828.96 644.71C829.066 644.325 829.092 643.922 829.037 643.527C828.982 643.132 828.847 642.752 828.64 642.41C829.004 642.675 829.397 642.9 829.81 643.08C829.747 645.035 830.087 646.982 830.81 648.8C830.966 649.222 831.228 649.598 831.57 649.89H831.63C829.92 649.9 828.21 649.88 826.5 649.88Z" fill="url(#paint0_linear)"/>
<path d="M844.74 650.98C846.858 651.005 848.958 651.369 850.96 652.06C851.958 652.415 852.863 652.991 853.606 653.747C854.35 654.502 854.912 655.416 855.25 656.42C855.645 658.18 855.337 660.025 854.39 661.56C853.437 663.057 852.268 664.405 850.92 665.56C848.408 668.075 845.486 670.144 842.28 671.68C840.7 672.37 839.03 672.84 837.49 673.6C834.2 675.22 831.67 678.03 829.24 680.78C826.821 683.255 824.764 686.06 823.13 689.11C823.01 689.34 822.88 689.61 822.63 689.69C822.394 689.726 822.153 689.676 821.95 689.55L814.95 686.24C814.744 686.19 814.556 686.087 814.403 685.94C814.251 685.793 814.141 685.608 814.084 685.404C814.027 685.2 814.025 684.985 814.079 684.78C814.133 684.576 814.24 684.389 814.39 684.24C817.809 677.82 822.51 672.17 828.2 667.64C825.766 668.958 823.052 669.675 820.285 669.733C817.518 669.79 814.777 669.186 812.29 667.97C811.301 667.534 810.446 666.844 809.81 665.97C808.57 664.06 809.33 661.52 810.27 659.44C811.116 657.599 812.082 655.815 813.16 654.1C815.73 650 822 650.37 826.32 650.36C832.44 650.393 838.58 650.6 844.74 650.98Z" fill="#434175"/>
<path opacity="0.1" d="M835.07 665.37C833.908 665.498 832.786 665.873 831.78 666.47C833.51 665.3 837.47 665.6 839.5 665.4C842.091 665.305 844.654 664.82 847.1 663.96C843.061 664.134 839.04 664.606 835.07 665.37V665.37Z" fill="black"/>
<path d="M802.9 690.42C801.9 691.5 800.9 692.96 801.52 694.27C802 695.27 803.36 695.79 803.52 696.9C803.539 697.291 803.431 697.679 803.213 698.004C802.996 698.33 802.679 698.578 802.31 698.71C801.567 698.963 800.771 699.018 800 698.87C798.133 698.638 796.31 698.133 794.59 697.37C793.632 697.045 792.814 696.403 792.27 695.55C791.878 694.52 791.829 693.39 792.13 692.33L794.71 677.7C794.78 676.988 795.016 676.303 795.4 675.7C796.22 674.62 797.79 674.5 799.14 674.63C800.657 674.772 802.149 675.109 803.58 675.63C804.577 675.903 805.457 676.493 806.09 677.31C806.6 678.351 806.772 679.526 806.58 680.67C806.46 682.46 806.76 685.06 806.1 686.73C805.56 688.09 803.86 689.34 802.9 690.42Z" fill="#F86D70"/>
<path d="M820.59 690.23C823.47 690.62 826.214 691.697 828.59 693.37C829.35 693.92 830.14 694.69 830.03 695.62C829.947 695.998 829.751 696.343 829.469 696.608C829.188 696.874 828.832 697.049 828.45 697.11C827.681 697.208 826.9 697.14 826.16 696.91C822.186 695.971 818.296 694.707 814.53 693.13C813.528 692.802 812.623 692.228 811.9 691.46C811.549 691.07 811.339 690.572 811.304 690.048C811.27 689.524 811.413 689.003 811.71 688.57C812.44 687.72 813.81 687.75 814.71 687.03C815.33 686.51 815.71 685.6 816.49 685.45C817.065 685.421 817.629 685.618 818.06 686C818.73 686.46 820.45 687.19 820.8 688C820.82 688.749 820.749 689.498 820.59 690.23V690.23Z" fill="#F86D70"/>
<path d="M790.42 656.12C795.23 655.29 800.06 654.46 804.93 654.12C808.53 653.86 812.43 653.96 815.31 656.12C816.17 656.76 816.9 657.56 817.71 658.26C820.43 660.62 823.94 661.8 827.3 663.1C834.758 666.015 841.833 669.826 848.37 674.45C849.94 675.55 851.59 676.87 851.99 678.75C852.163 680.071 851.98 681.414 851.46 682.64C850.989 684.572 849.943 686.315 848.46 687.64C845.84 689.57 842.21 688.8 838.95 688.76C836.42 688.812 833.902 689.11 831.43 689.65C823.37 691.14 815.32 692.65 807.33 694.46C806.852 694.503 806.372 694.402 805.951 694.171C805.531 693.939 805.189 693.587 804.97 693.16C803.383 690.64 802.531 687.728 802.51 684.75C802.492 681.785 802.879 678.831 803.66 675.97C800.92 675.24 798.72 674.52 795.98 673.79C794.947 673.581 793.962 673.177 793.08 672.6C791.44 671.37 790.96 669.14 790.62 667.11C789.97 663.47 789.24 659.55 790.42 656.12Z" fill="#434175"/>
<path opacity="0.1" d="M837.5 679.64C835.708 678.304 833.63 677.404 831.43 677.01C830.123 676.633 828.784 676.378 827.43 676.25C825.315 676.252 823.205 676.46 821.13 676.87C816.048 677.575 810.876 677.235 805.93 675.87" fill="black"/>
<path d="M872.66 562.85C872.66 562.85 850.58 660.85 851.73 663.67C852.88 666.49 860.02 680.67 847.02 725.55C846.917 726.524 846.445 727.422 845.701 728.059C844.958 728.697 843.998 729.026 843.02 728.98C839.37 728.98 826.69 725.27 826.69 725.27C826.187 724.748 825.823 724.109 825.631 723.41C825.439 722.711 825.425 721.976 825.59 721.27C826.04 718.63 830.59 675.54 846.83 661.21L867.01 562.06C867.01 562.06 869.71 560.01 872.66 562.85Z" fill="#AE6E79"/>
<path d="M867.41 555.99L873.68 557.06C874.327 557.167 874.928 557.462 875.408 557.909C875.888 558.355 876.226 558.933 876.38 559.57C876.81 561.43 876.54 563.81 872.38 563.89C865.58 564.02 867 562.08 867 562.08C867 562.08 863.65 562.08 863.44 559.48C863.406 558.97 863.489 558.459 863.684 557.987C863.879 557.514 864.18 557.093 864.564 556.755C864.948 556.418 865.404 556.173 865.898 556.041C866.391 555.908 866.909 555.891 867.41 555.99V555.99Z" fill="#AE6E79"/>
<path d="M841.43 610.14C840.301 610.123 839.186 609.877 838.155 609.416C837.124 608.955 836.196 608.29 835.43 607.46C835.128 607.103 834.766 606.802 834.36 606.57C833.984 606.434 833.581 606.39 833.185 606.44C832.789 606.49 832.41 606.634 832.08 606.86C829.81 608.16 828.82 611.04 829.08 613.63C829.52 616.217 830.611 618.65 832.25 620.7C833.467 622.412 834.804 624.036 836.25 625.56C837.03 624.567 837.999 623.738 839.101 623.122C840.203 622.506 841.416 622.114 842.67 621.97C844.92 621.72 846.99 619.97 848.67 618.47C849.91 617.33 850.67 617.6 850.26 615.97C849.745 614.37 849.044 612.836 848.17 611.4C847.709 610.554 847.346 609.658 847.09 608.73C846.82 607.65 847.09 607.07 846.09 607.6C845.42 607.95 844.91 608.95 844.16 609.37C843.322 609.834 842.387 610.097 841.43 610.14Z" fill="#FABDBD"/>
<path d="M838.92 593.89C838.859 593.405 838.91 592.912 839.07 592.45C839.502 591.732 840.187 591.201 840.99 590.96L851.99 586.17C853.159 585.622 854.374 585.177 855.62 584.84C859.22 583.96 863.25 584.84 866.54 583.09C867.49 582.584 868.323 581.885 868.986 581.038C869.649 580.191 870.128 579.214 870.39 578.17C870.76 576.67 870.52 574.81 869.2 574.01C867.88 573.21 866.04 573.9 864.59 574.64C859.94 577.172 855.119 579.374 850.16 581.23C845.41 582.87 840.4 583.85 835.95 586.16C835.146 586.542 834.407 587.049 833.76 587.66C833.087 588.431 832.531 589.297 832.11 590.23L830.43 593.56C829 596.37 827.57 599.7 828.96 602.56C829.155 603.004 829.445 603.4 829.809 603.72C830.174 604.039 830.604 604.275 831.07 604.41C831.739 604.507 832.421 604.46 833.07 604.27C834.79 603.91 837.66 603.9 838.61 602.16C839.85 599.94 839.04 596.23 838.92 593.89Z" fill="#FABDBD"/>
<path d="M841 644.35C841.817 643.774 842.562 643.103 843.22 642.35C844.253 641.358 845.478 640.587 846.819 640.083C848.16 639.579 849.589 639.354 851.02 639.42C852.09 639.427 853.134 639.751 854.02 640.35C854.454 640.655 854.791 641.078 854.991 641.569C855.191 642.06 855.247 642.599 855.15 643.12C854.939 643.651 854.624 644.136 854.224 644.544C853.824 644.953 853.347 645.278 852.82 645.5C849.734 647.388 846.443 648.918 843.01 650.06C839.565 651.198 835.891 651.459 832.32 650.82C831.965 650.767 831.624 650.641 831.32 650.45C830.987 650.164 830.735 649.795 830.59 649.38C829.37 646.51 829.59 643.27 829.85 640.17C829.74 641.29 836.41 640.41 837 640.91C837.87 641.64 837.4 643.02 837.94 643.91C838.296 644.362 838.812 644.661 839.382 644.742C839.952 644.824 840.531 644.684 841 644.35V644.35Z" fill="#FABDBD"/>
<path d="M853.03 621.26C858.625 621.26 863.16 616.725 863.16 611.13C863.16 605.535 858.625 601 853.03 601C847.435 601 842.9 605.535 842.9 611.13C842.9 616.725 847.435 621.26 853.03 621.26Z" fill="#FABDBD"/>
<path d="M830.98 600.61C832.922 600.02 834.972 599.869 836.98 600.17C837.283 600.118 837.593 600.129 837.891 600.203C838.189 600.277 838.468 600.413 838.711 600.601C838.954 600.789 839.155 601.026 839.301 601.296C839.447 601.566 839.535 601.864 839.56 602.17C839.899 603.284 840.058 604.446 840.03 605.61C840.013 606.192 839.858 606.762 839.578 607.273C839.298 607.784 838.901 608.222 838.42 608.55C837.68 609 836.77 609.07 836.01 609.5C835.507 609.83 835.088 610.273 834.788 610.794C834.487 611.315 834.313 611.899 834.28 612.5C834.212 613.697 834.361 614.896 834.72 616.04C835.494 618.954 836.498 621.803 837.72 624.56C838.98 627.43 840.51 630.27 840.88 633.39C841.11 635.037 840.94 636.715 840.383 638.282C839.826 639.849 838.898 641.258 837.68 642.39C836.428 643.478 834.856 644.132 833.201 644.253C831.547 644.373 829.897 643.955 828.5 643.06C828.7 643.395 828.831 643.767 828.884 644.153C828.938 644.54 828.912 644.933 828.81 645.31L824.16 646.25C823.999 646.247 823.839 646.277 823.69 646.338C823.541 646.4 823.407 646.491 823.294 646.606C823.182 646.721 823.094 646.858 823.037 647.008C822.979 647.159 822.953 647.319 822.96 647.48C822.848 649.217 822.566 650.938 822.12 652.62C821.894 653.464 821.451 654.234 820.835 654.853C820.22 655.472 819.452 655.919 818.61 656.15C817.03 656.45 815.48 655.66 814.04 654.94C810.679 653.276 807.166 651.936 803.55 650.94C801.715 650.586 799.966 649.879 798.4 648.86C797.416 648.07 796.681 647.013 796.282 645.816C795.883 644.619 795.837 643.332 796.15 642.11C796.575 640.838 797.196 639.641 797.99 638.56C802.024 632.164 806.425 626.007 811.17 620.12C814.356 616.247 817.928 612.709 821.83 609.56C822.83 608.76 823.83 608 824.92 607.27C825.69 606.74 827.24 606.14 827.71 605.34C828.18 604.54 827.9 603.57 828.4 602.75C829.01 601.78 829.914 601.03 830.98 600.61V600.61Z" fill="#F86D70"/>
<path d="M866.42 616.23C864.576 617.199 862.497 617.629 860.42 617.47C858.36 617.4 856.32 617.03 854.26 616.94C851.71 616.83 848.74 617.4 847.56 619.65C847.182 620.579 846.901 621.544 846.72 622.53C846.622 623.022 846.419 623.487 846.124 623.893C845.828 624.299 845.448 624.636 845.01 624.88C844.555 625.033 844.08 625.117 843.6 625.13C839.294 625.58 835.223 627.315 831.916 630.109C828.61 632.904 826.221 636.629 825.06 640.8C824.023 639.762 823.234 638.504 822.751 637.119C822.268 635.734 822.103 634.257 822.27 632.8C821.58 635.39 818.66 637.45 819.27 640.07C818.124 638.8 817.255 637.306 816.719 635.681C816.183 634.057 815.992 632.339 816.158 630.637C816.323 628.934 816.842 627.285 817.681 625.795C818.52 624.304 819.661 623.005 821.03 621.98C822.35 620.98 823.86 620.28 825.23 619.36C827.14 618.064 828.763 616.388 829.997 614.437C831.231 612.486 832.049 610.302 832.4 608.02C832.69 606.08 832.65 604.02 833.56 602.28C834.82 599.86 837.56 598.67 840.11 597.72C841.925 596.988 843.807 596.435 845.73 596.07C848.231 595.747 850.766 595.804 853.25 596.24C858.79 597.08 863.34 599.19 865.46 604.62C865.86 605.835 866.484 606.965 867.3 607.95C867.952 608.507 868.531 609.146 869.02 609.85C870.24 612.13 868.43 615 866.42 616.23Z" fill="#434175"/>
<path d="M272.5 729.93C272.5 729.93 355.66 691.13 386.97 704.74C418.28 718.35 491.82 715.63 491.82 715.63C491.82 715.63 622.5 710.23 637.5 715.63C652.5 721.03 788.62 721.08 795.42 715.63C802.22 710.18 879.83 706.1 892.09 715.63C899.602 721.439 907.838 726.246 916.59 729.93H272.5Z" fill="#E8EAF2"/>
<path opacity="0.3" d="M272.5 729.93C272.5 729.93 355.66 683.84 386.97 700.01C418.28 716.18 491.8 712.95 491.8 712.95C491.8 712.95 622.5 706.48 637.48 712.95C652.46 719.42 788.6 719.42 795.4 712.95C802.2 706.48 879.81 701.63 892.07 712.95C899.395 719.743 907.643 725.466 916.57 729.95L272.5 729.93Z" fill="white"/>
</g>
<defs>
<linearGradient id="paint0_linear" x1="797.716" y1="625.795" x2="862.886" y2="643.221" gradientUnits="userSpaceOnUse">
<stop stop-color="#808080" stop-opacity="0.25"/>
<stop offset="0.54" stop-color="#808080" stop-opacity="0.12"/>
<stop offset="1" stop-color="#808080" stop-opacity="0.1"/>
</linearGradient>
<clipPath id="clip0">
<rect width="1145" height="730.47" fill="white"/>
</clipPath>
</defs>
</svg>
