<?xml version="1.0" encoding="utf-8"?>
<!-- Generator: Adobe Illustrator 24.0.1, SVG Export Plug-In . SVG Version: 6.00 Build 0)  -->
<svg version="1.1" id="Layer_1" xmlns="http://www.w3.org/2000/svg" xmlns:xlink="http://www.w3.org/1999/xlink" x="0px" y="0px"
	 viewBox="0 0 188.7 188.7" style="enable-background:new 0 0 188.7 188.7;" xml:space="preserve">
<style type="text/css">
	.st0{fill:#FFFFFF;}
</style>
<title>zeroneko-logo</title>
<path class="st0" d="M63.4,27.2c28.9,0,44.6,19.3,44.6,45.1c0,24.9-14.5,47.3-44.6,47.3c-31.6,0-44.6-20.6-44.6-47.3
	C18.8,46.5,34.5,27.2,63.4,27.2z M63.4,103.5c18.3,0,24.5-14.2,24.5-31.2s-8.1-28.9-24.5-28.9s-24.5,12-24.5,28.9
	S44.5,103.5,63.4,103.5z"/>
<path class="st0" d="M163.2,114.2c-12.1,0-20.4-2.9-25.4-8.9c-8.6-10.3-4.5-25.7-0.9-39.2c1.6-6.1,4.3-16.3,2.5-18
	c-0.1-0.1-2.7-2.2-16.9,3.1c-2.6,1-5.5-0.3-6.4-2.9c-1-2.6,0.3-5.5,2.9-6.4c13.9-5.2,22.2-5.6,27.1-1.2c6.4,5.8,3.6,16.1,0.5,28
	c-3,11.2-6.4,24-1.1,30.3c3.6,4.4,11.7,6,24.1,5.1c2.8-0.2,5.2,1.8,5.4,4.6c0.2,2.8-1.8,5.2-4.6,5.4
	C167.8,114.1,165.4,114.2,163.2,114.2z"/>
<path class="st0" d="M50.2,17.4C38,19,35.1,22.2,31.1,25.6c-0.7,0.6-1.8,0.5-2.4-0.2c-0.3-0.4-0.5-0.9-0.4-1.5
	c1.1-4.8,2.6-12.4,2.7-17.7c0-1.3,1.1-2.3,2.3-2.3c0.5,0,0.9,0.1,1.3,0.4l16,11.1c0.5,0.3,0.6,0.9,0.3,1.4
	C50.9,17.2,50.6,17.3,50.2,17.4z"/>
<path class="st0" d="M76.6,17.4c12.3,1.6,15.1,4.9,19.1,8.2c0.7,0.6,1.8,0.5,2.4-0.2c0.3-0.4,0.5-0.9,0.4-1.5
	c-1.1-4.8-2.6-12.4-2.7-17.7c0-1.3-1.1-2.3-2.3-2.3c-0.5,0-0.9,0.1-1.3,0.4L76.2,15.5c-0.5,0.3-0.6,0.9-0.4,1.4
	C76,17.1,76.3,17.3,76.6,17.4z"/>
<path class="st0" d="M9.1,144.8c0-4.1,2-5.8,6.2-5.8c2-0.1,3.9,0.9,4.9,2.6l17.2,27.8h0.1v-25.6c0-3.2,1.8-4.7,4.7-4.7
	s4.7,1.6,4.7,4.7v33.9c0,3.9-1.7,6.1-5.8,6.1c-3.1,0-4.1-0.7-5.4-2.6l-17.1-27h-0.1V179c0,3.2-1.8,4.7-4.7,4.7s-4.7-1.6-4.7-4.7
	V144.8z"/>
<path class="st0" d="M56.1,145.5c0-4.4,2.3-5.8,5.8-5.8h23.1c2.9,0,5,0.8,5,4s-2.1,4-5,4h-19v9.2h16.7c2.6,0,4.6,0.7,4.6,3.8
	s-2,3.8-4.6,3.8H65.9V175h19.5c2.9,0,5,0.8,5,4s-2.1,3.9-5,3.9H61.8c-3.5,0-5.8-1.4-5.8-5.8V145.5z"/>
<path class="st0" d="M96.9,143.9c0.1-2.7,2.4-4.8,5.1-4.7c2.5,0.1,4.6,2.2,4.7,4.7v14.3l15.5-17c1.1-1.2,2.2-2.1,3.9-2.1
	c2.3,0,4.7,1.4,4.7,3.9c0,1.3-0.6,2.5-1.6,3.4l-10.1,10.6l11.9,18.1c0.9,1.4,1.9,2.6,1.9,3.9c0,3.6-2.7,4.7-5,4.7
	c-2,0-3-0.5-4.4-2.6l-11.3-17.5l-5.4,5.4v9.8c-0.1,2.7-2.4,4.8-5.1,4.7c-2.5-0.1-4.6-2.2-4.7-4.7L96.9,143.9z"/>
<path class="st0" d="M157.9,138.8c14.1,0,21.8,9.4,21.8,22.1c0,12.2-7.1,23.1-21.8,23.1c-15.5,0-21.8-10.1-21.8-23.1
	C136,148.2,143.7,138.8,157.9,138.8z M157.9,176c8.9,0,12-6.9,12-15.2s-4-14.1-12-14.1s-12,5.9-12,14.1S148.6,176,157.9,176
	L157.9,176z"/>
</svg>
