<?xml version="1.0" encoding="utf-8"?>
<!-- Generator: Adobe Illustrator 24.0.1, SVG Export Plug-In . SVG Version: 6.00 Build 0)  -->
<svg version="1.1" id="Layer_1" xmlns="http://www.w3.org/2000/svg" xmlns:xlink="http://www.w3.org/1999/xlink" x="0px" y="0px"
	 viewBox="0 0 982.1 163.6" style="enable-background:new 0 0 982.1 163.6;" xml:space="preserve">
<style type="text/css">
	.st0{fill:#FFFFFF;}
</style>
<title>zeroneko-logo</title>
<path class="st0" d="M72.5,62.5H29.2c-7.1,0-12.9-3.6-12.9-10.5s5.8-10.5,12.9-10.5h65.4c6.4,0,11.5,2.7,11.5,11.4
	c-0.1,3.3-1.3,6.5-3.5,8.9l-57.1,67.9h48.5c7.1,0,12.9,3.6,12.9,10.4s-5.8,10.4-12.9,10.4H26.6c-9.1,0-14.4-3-14.4-12.3
	c0-3.9,1.8-6.8,4.1-9.5L72.5,62.5z"/>
<path class="st0" d="M123.6,56.2c0-11,5.8-14.5,14.5-14.5h58.3c7.3,0,12.6,2.1,12.6,10s-5.3,10-12.6,10h-48v23.6h42.1
	c6.5,0,11.7,1.8,11.7,9.5s-5.1,9.5-11.7,9.5h-42.1v26.4h49.2c7.3,0,12.6,2.1,12.6,10s-5.3,10-12.6,10h-59.5
	c-8.8,0-14.5-3.5-14.5-14.5L123.6,56.2z"/>
<path class="st0" d="M226.7,56.2c0-11,5.8-14.5,14.5-14.5h41.4c29.5,0,37.4,16.2,37.4,30.3c0,11.8-7,23.5-18.8,26.2v0.3
	c12.7,1.8,15,11.1,15,22.1c0,12.6,3.3,17.3,3.3,22.4c0,5.8-5.9,9.7-11.7,9.7c-13.6,0-14.7-13.2-14.7-17.6c0-19.1-3.5-26.8-17.1-26.8
	h-24.5v32c0,7.4-4.8,12.4-12.4,12.4s-12.4-5-12.4-12.4V56.2z M251.6,90.1h24.8c9.4,0,18.8-2.4,18.8-14.7c0-11.7-7.1-14.7-18-14.7
	h-25.6L251.6,90.1z"/>
<path class="st0" d="M389.3,39.1c35.8,0,55.1,23.8,55.1,55.7c0,30.8-17.9,58.5-55.1,58.5c-39.1,0-55.1-25.4-55.1-58.5
	C334.1,62.8,353.5,39.1,389.3,39.1z M389.3,133.3c22.6,0,30.3-17.6,30.3-38.5s-10-35.8-30.3-35.8S359,73.9,359,94.8
	S366,133.3,389.3,133.3z"/>
<path class="st0" d="M462.1,54.2c0-10.3,5-14.5,15.6-14.5c5.1,0,9.7,2,12.4,6.5l43.5,70.1h0.3V51.6c0-8,4.5-12,12-12s12,3.9,12,12
	v85.6c0,9.9-4.2,15.4-14.7,15.4c-7.9,0-10.5-1.7-13.6-6.7l-43.2-68.2h-0.3v62.9c0,8-4.5,12-12,12s-12-3.9-12-12L462.1,54.2z"/>
<path class="st0" d="M581,56.2c0-11,5.8-14.5,14.5-14.5h58.4c7.3,0,12.6,2.1,12.6,10s-5.3,10-12.6,10h-48v23.6H648
	c6.5,0,11.7,1.8,11.7,9.5s-5.2,9.5-11.7,9.5h-42.1v26.4h49.2c7.3,0,12.6,2.1,12.6,10s-5.3,10-12.6,10h-59.5
	c-8.8,0-14.5-3.5-14.5-14.5L581,56.2z"/>
<path class="st0" d="M684.2,52.1c0-7.4,4.8-12.4,12.4-12.4s12.4,5,12.4,12.4v36l39.1-43c2.9-3,5.5-5.5,9.8-5.5
	c5.9,0,11.8,3.6,11.8,10c0,3.8-2,6.4-4.1,8.5L740.2,85l30.1,45.9c2.3,3.5,4.7,6.7,4.7,9.8c0,9.2-6.8,12-12.7,12c-5,0-7.7-1.2-11-6.5
	L722.7,102L709,115.6v24.7c0,7.4-4.8,12.4-12.4,12.4s-12.4-5-12.4-12.4L684.2,52.1z"/>
<path class="st0" d="M838.2,39.1c35.8,0,55.1,23.8,55.1,55.7c0,30.8-17.9,58.5-55.1,58.5c-39.1,0-55.1-25.4-55.1-58.5
	C783.1,62.8,802.5,39.1,838.2,39.1z M838.2,133.3c22.6,0,30.3-17.6,30.3-38.5s-10-35.8-30.3-35.8S808,73.9,808,94.8
	S814.9,133.3,838.2,133.3z"/>
<path class="st0" d="M961.5,146.9c-15,0-25.4-3.7-31.7-11.1c-10.7-12.8-5.6-31.9-1.1-48.8c1.6-6.1,3.1-11.8,3.6-16.2
	c0.5-4.7-0.4-5.7-0.4-5.7c0,0-3.2-2.6-20.5,3.9c-3.4,1.3-7.1-0.4-8.4-3.8s0.4-7.1,3.8-8.4c17.3-6.5,27.7-6.9,33.8-1.4
	c8,7.2,4.6,20.1,0.7,34.9c-3.7,13.8-7.8,29.5-1.5,37.1c4.4,5.3,14.3,7.4,29.5,6.1c3.6-0.3,6.7,2.4,7,6s-2.4,6.7-6,7
	C967.2,146.7,964.3,146.9,961.5,146.9z"/>
<path class="st0" d="M822,26.9c-15.1,2.1-18.7,6-23.6,10.2c-0.9,0.8-2.2,0.7-2.9-0.1c-0.5-0.5-0.6-1.2-0.5-1.9
	c1.3-5.9,3.3-15.3,3.3-21.9c0-1.6,1.3-2.8,2.9-2.8c0.6,0,1.1,0.2,1.6,0.5l19.7,13.8c0.6,0.4,0.7,1.2,0.3,1.8
	C822.6,26.6,822.3,26.8,822,26.9z"/>
<path class="st0" d="M854.5,26.9c15.1,2.1,18.7,6,23.6,10.2c0.9,0.7,2.2,0.6,2.9-0.3c0.4-0.5,0.6-1.1,0.4-1.7
	c-1.3-5.9-3.3-15.3-3.3-21.9c0-1.6-1.3-2.8-2.9-2.8c-0.6,0-1.1,0.2-1.6,0.5L854,24.6c-0.6,0.4-0.7,1.2-0.3,1.8
	C853.9,26.6,854.2,26.8,854.5,26.9z"/>
</svg>
