<svg id="Layer_1" data-name="Layer 1" xmlns="http://www.w3.org/2000/svg" viewBox="0 0 188.72 188.72"><defs><style>.cls-1{fill:none;stroke:#000;stroke-linecap:round;stroke-miterlimit:10;stroke-width:10px;}</style></defs><title>zeroneko-logo</title><path d="M63.41,27.21c28.94,0,44.64,19.25,44.64,45.12,0,24.9-14.47,47.34-44.64,47.34-31.63,0-44.63-20.61-44.63-47.34C18.78,46.46,34.48,27.21,63.41,27.21Zm0,76.27c18.28,0,24.53-14.23,24.53-31.15S79.85,43.39,63.41,43.39s-24.52,12-24.52,28.94S44.53,103.48,63.41,103.48Z"/><path class="cls-1" d="M120.75,46.45c63.1-23.75-26.13,68.57,49.19,62.46"/><path d="M50.22,17.35C38,19,35.08,22.22,31.13,25.58a1.68,1.68,0,0,1-2.73-1.65C29.5,19.14,31,11.52,31.1,6.24a2.31,2.31,0,0,1,3.63-1.87l16,11.12A1,1,0,0,1,50.22,17.35Z"/><path d="M76.61,17.35C88.86,19,91.75,22.22,95.7,25.58a1.68,1.68,0,0,0,2.73-1.65c-1.1-4.79-2.63-12.41-2.7-17.69A2.31,2.31,0,0,0,92.1,4.37L76.15,15.49A1,1,0,0,0,76.61,17.35Z"/><path d="M9.05,144.75c0-4.08,2-5.75,6.17-5.75a5.42,5.42,0,0,1,4.92,2.57l17.2,27.75h.12V143.73c0-3.18,1.79-4.73,4.73-4.73s4.74,1.55,4.74,4.73v33.86c0,3.89-1.68,6.11-5.82,6.11-3.11,0-4.13-.66-5.39-2.64l-17.08-27h-.12V179c0,3.17-1.8,4.73-4.73,4.73S9.05,182.14,9.05,179Z"/><path d="M56.1,145.53c0-4.38,2.27-5.76,5.75-5.76H84.92c2.88,0,5,.84,5,4s-2.1,4-5,4h-19V157H82.58c2.58,0,4.62.72,4.62,3.78s-2,3.77-4.62,3.77H65.93V175H85.4c2.88,0,5,.84,5,4s-2.1,3.95-5,3.95H61.85c-3.48,0-5.75-1.38-5.75-5.75Z"/><path d="M96.91,143.91a4.92,4.92,0,0,1,9.83,0v14.26l15.46-17c1.14-1.2,2.16-2.15,3.89-2.15,2.34,0,4.68,1.43,4.68,3.95a4.63,4.63,0,0,1-1.62,3.36l-10.07,10.6L131,175.07c.9,1.38,1.86,2.64,1.86,3.9,0,3.65-2.7,4.73-5,4.73-2,0-3-.48-4.37-2.58l-11.33-17.49L106.74,169v9.77a4.92,4.92,0,0,1-9.83,0Z"/><path d="M157.86,138.76c14.14,0,21.81,9.4,21.81,22.05,0,12.16-7.07,23.13-21.81,23.13-15.46,0-21.82-10.07-21.82-23.13C136,148.16,143.72,138.76,157.86,138.76Zm0,37.27c8.93,0,12-6.95,12-15.22s-4-14.14-12-14.14-12,5.87-12,14.14S148.63,176,157.86,176Z"/></svg>